<svg width="2321" height="1124" viewBox="0 0 2321 1124" fill="none" xmlns="http://www.w3.org/2000/svg">
<rect width="2321" height="1124" fill="url(#paint0_linear_301_9)"/>
<path fill-rule="evenodd" clip-rule="evenodd" d="M884.779 708L840.017 509.002H761V416L884.779 466.528L1010 416V509.002H930.983L884.779 708ZM1059 660L1092.3 562.222L1059 465H1160.35C1182.19 465 1201.42 468.993 1218.03 476.979C1234.64 484.779 1247.62 495.921 1256.95 510.407C1262.07 518.359 1256.68 527.15 1250.78 536.781C1245.93 544.694 1240.73 553.175 1240.73 562.222C1240.73 571.346 1245.92 579.905 1250.77 587.897C1256.68 597.636 1262.08 606.535 1256.95 614.593C1247.62 629.079 1234.64 640.314 1218.03 648.3C1201.42 656.1 1182.19 660 1160.35 660H1059ZM1129.83 608.743H1157.55C1166.89 608.743 1175.01 606.979 1181.91 603.45C1189.01 599.921 1194.51 594.721 1198.43 587.85C1202.35 580.793 1204.31 572.25 1204.31 562.222C1204.31 552.378 1202.35 544.021 1198.43 537.15C1194.51 530.279 1189.01 525.079 1181.91 521.55C1175.01 518.021 1166.89 516.257 1157.55 516.257H1129.83V608.743ZM1362.13 700.022C1384.05 705.341 1406.77 708 1430.29 708C1459.43 708 1483.62 703.745 1502.86 695.235C1522.11 686.459 1536.54 675.024 1546.16 660.929C1556.05 646.568 1561 630.878 1561 613.858C1561 599.231 1558.19 586.998 1552.58 577.159C1546.97 567.319 1539.48 559.341 1530.13 553.224C1521.04 547.107 1511.01 542.187 1500.06 538.464C1489.09 534.741 1478 531.816 1466.78 529.689C1455.82 527.561 1445.66 525.566 1436.3 523.705C1427.21 521.843 1419.87 519.583 1414.25 516.923C1408.64 513.998 1405.83 510.142 1405.83 505.355C1405.83 502.164 1406.9 499.238 1409.04 496.579C1411.44 493.92 1415.32 491.792 1420.67 490.197C1426.01 488.601 1433.23 487.803 1442.32 487.803C1454.61 487.803 1467.18 489.532 1480.01 492.989C1493.11 496.446 1506.6 501.632 1520.5 508.546L1548.97 440.333C1534.27 432.089 1517.7 425.973 1499.25 421.984C1480.81 417.995 1462.1 416 1443.12 416C1414.25 416 1390.06 420.255 1370.55 428.765C1351.3 437.275 1336.73 448.71 1326.84 463.071C1321.67 470.645 1329.58 478.218 1338 486.287C1345.25 493.234 1352.88 500.549 1352.88 508.546C1352.88 516.057 1343.3 523.364 1334.52 530.06C1325.9 536.641 1318.05 542.63 1320.83 547.639C1326.44 557.479 1333.79 565.457 1342.88 571.574C1352.24 577.69 1362.4 582.61 1373.35 586.333C1384.58 590.057 1395.67 593.115 1406.63 595.508C1417.59 597.635 1427.62 599.763 1436.71 601.891C1446.06 603.752 1453.54 606.145 1459.16 609.071C1464.77 611.996 1467.58 615.985 1467.58 621.038C1467.58 624.23 1466.38 627.022 1463.97 629.415C1461.56 631.543 1457.69 633.271 1452.34 634.601C1447.26 635.665 1440.18 636.197 1431.09 636.197C1415.59 636.197 1399.55 633.936 1382.98 629.415C1366.67 624.628 1351.84 618.379 1338.47 610.666L1308 679.278C1322.17 687.788 1340.21 694.703 1362.13 700.022Z" fill="url(#paint1_linear_301_9)"/>
<path d="M1021.07 813.818V817.227H1007.5V813.818H1021.07ZM1011.45 807.545H1015.48V832.5C1015.48 833.636 1015.64 834.489 1015.97 835.057C1016.31 835.614 1016.74 835.989 1017.27 836.182C1017.8 836.364 1018.36 836.455 1018.95 836.455C1019.4 836.455 1019.76 836.432 1020.05 836.386C1020.33 836.33 1020.56 836.284 1020.73 836.25L1021.55 839.864C1021.27 839.966 1020.89 840.068 1020.4 840.17C1019.91 840.284 1019.3 840.341 1018.55 840.341C1017.41 840.341 1016.3 840.097 1015.2 839.608C1014.13 839.119 1013.23 838.375 1012.51 837.375C1011.81 836.375 1011.45 835.114 1011.45 833.591V807.545ZM1031.7 824.25V840H1027.68V805.091H1031.7V817.909H1032.05C1032.66 816.557 1033.58 815.483 1034.81 814.688C1036.05 813.881 1037.69 813.477 1039.75 813.477C1041.53 813.477 1043.1 813.835 1044.44 814.551C1045.78 815.256 1046.82 816.341 1047.56 817.807C1048.31 819.261 1048.68 821.114 1048.68 823.364V840H1044.66V823.636C1044.66 821.557 1044.12 819.949 1043.04 818.812C1041.97 817.665 1040.49 817.091 1038.59 817.091C1037.27 817.091 1036.09 817.369 1035.05 817.926C1034.01 818.483 1033.19 819.295 1032.59 820.364C1032 821.432 1031.7 822.727 1031.7 824.25ZM1056.04 840V813.818H1060.06V840H1056.04ZM1058.09 809.455C1057.3 809.455 1056.63 809.188 1056.06 808.653C1055.5 808.119 1055.22 807.477 1055.22 806.727C1055.22 805.977 1055.5 805.335 1056.06 804.801C1056.63 804.267 1057.3 804 1058.09 804C1058.87 804 1059.54 804.267 1060.1 804.801C1060.67 805.335 1060.95 805.977 1060.95 806.727C1060.95 807.477 1060.67 808.119 1060.1 808.653C1059.54 809.188 1058.87 809.455 1058.09 809.455ZM1085.98 819.682L1082.36 820.705C1082.14 820.102 1081.8 819.517 1081.36 818.949C1080.93 818.369 1080.34 817.892 1079.59 817.517C1078.84 817.142 1077.88 816.955 1076.7 816.955C1075.1 816.955 1073.77 817.324 1072.7 818.062C1071.64 818.79 1071.11 819.716 1071.11 820.841C1071.11 821.841 1071.48 822.631 1072.2 823.21C1072.93 823.79 1074.07 824.273 1075.61 824.659L1079.5 825.614C1081.84 826.182 1083.59 827.051 1084.73 828.222C1085.88 829.381 1086.45 830.875 1086.45 832.705C1086.45 834.205 1086.02 835.545 1085.16 836.727C1084.31 837.909 1083.11 838.841 1081.58 839.523C1080.05 840.205 1078.26 840.545 1076.23 840.545C1073.56 840.545 1071.35 839.966 1069.6 838.807C1067.85 837.648 1066.74 835.955 1066.27 833.727L1070.09 832.773C1070.45 834.182 1071.14 835.239 1072.15 835.943C1073.18 836.648 1074.51 837 1076.16 837C1078.03 837 1079.52 836.602 1080.62 835.807C1081.74 835 1082.3 834.034 1082.3 832.909C1082.3 832 1081.98 831.239 1081.34 830.625C1080.7 830 1079.73 829.534 1078.41 829.227L1074.05 828.205C1071.65 827.636 1069.89 826.756 1068.76 825.562C1067.65 824.358 1067.09 822.852 1067.09 821.045C1067.09 819.568 1067.51 818.261 1068.34 817.125C1069.18 815.989 1070.32 815.097 1071.76 814.449C1073.22 813.801 1074.86 813.477 1076.7 813.477C1079.3 813.477 1081.33 814.045 1082.81 815.182C1084.3 816.318 1085.35 817.818 1085.98 819.682ZM1103.83 840H1093.06V805.091H1104.31C1107.69 805.091 1110.59 805.79 1113 807.188C1115.41 808.574 1117.25 810.568 1118.54 813.17C1119.82 815.761 1120.46 818.864 1120.46 822.477C1120.46 826.114 1119.82 829.244 1118.52 831.869C1117.23 834.483 1115.34 836.494 1112.86 837.903C1110.38 839.301 1107.37 840 1103.83 840ZM1097.28 836.25H1103.56C1106.44 836.25 1108.83 835.693 1110.73 834.58C1112.63 833.466 1114.04 831.881 1114.98 829.824C1115.91 827.767 1116.37 825.318 1116.37 822.477C1116.37 819.659 1115.91 817.233 1114.99 815.199C1114.07 813.153 1112.7 811.585 1110.87 810.494C1109.04 809.392 1106.76 808.841 1104.03 808.841H1097.28V836.25ZM1137.99 840.545C1135.46 840.545 1133.29 839.989 1131.46 838.875C1129.64 837.75 1128.24 836.182 1127.25 834.17C1126.27 832.148 1125.78 829.795 1125.78 827.114C1125.78 824.432 1126.27 822.068 1127.25 820.023C1128.24 817.966 1129.61 816.364 1131.37 815.216C1133.15 814.057 1135.21 813.477 1137.58 813.477C1138.94 813.477 1140.29 813.705 1141.62 814.159C1142.95 814.614 1144.16 815.352 1145.25 816.375C1146.34 817.386 1147.21 818.727 1147.86 820.398C1148.5 822.068 1148.83 824.125 1148.83 826.568V828.273H1128.65V824.795H1144.74C1144.74 823.318 1144.44 822 1143.85 820.841C1143.27 819.682 1142.44 818.767 1141.36 818.097C1140.29 817.426 1139.03 817.091 1137.58 817.091C1135.98 817.091 1134.59 817.489 1133.42 818.284C1132.26 819.068 1131.37 820.091 1130.74 821.352C1130.12 822.614 1129.81 823.966 1129.81 825.409V827.727C1129.81 829.705 1130.15 831.381 1130.83 832.756C1131.52 834.119 1132.48 835.159 1133.71 835.875C1134.94 836.58 1136.36 836.932 1137.99 836.932C1139.04 836.932 1140 836.784 1140.85 836.489C1141.71 836.182 1142.46 835.727 1143.08 835.125C1143.71 834.511 1144.19 833.75 1144.53 832.841L1148.42 833.932C1148.01 835.25 1147.32 836.409 1146.36 837.409C1145.39 838.398 1144.2 839.17 1142.78 839.727C1141.36 840.273 1139.76 840.545 1137.99 840.545ZM1175.56 813.818L1165.88 840H1161.79L1152.11 813.818H1156.47L1163.7 834.682H1163.97L1171.2 813.818H1175.56ZM1200.51 813.818C1200.3 812.091 1199.47 810.75 1198.02 809.795C1196.56 808.841 1194.78 808.364 1192.66 808.364C1191.12 808.364 1189.77 808.614 1188.61 809.114C1187.46 809.614 1186.56 810.301 1185.91 811.176C1185.28 812.051 1184.96 813.045 1184.96 814.159C1184.96 815.091 1185.18 815.892 1185.62 816.562C1186.08 817.222 1186.66 817.773 1187.36 818.216C1188.07 818.648 1188.81 819.006 1189.58 819.29C1190.35 819.562 1191.06 819.784 1191.71 819.955L1195.26 820.909C1196.16 821.148 1197.18 821.477 1198.29 821.898C1199.41 822.318 1200.49 822.892 1201.51 823.619C1202.55 824.335 1203.4 825.256 1204.07 826.381C1204.74 827.506 1205.07 828.886 1205.07 830.523C1205.07 832.409 1204.58 834.114 1203.59 835.636C1202.61 837.159 1201.18 838.369 1199.3 839.267C1197.42 840.165 1195.14 840.614 1192.46 840.614C1189.96 840.614 1187.8 840.21 1185.97 839.403C1184.15 838.597 1182.72 837.472 1181.67 836.028C1180.64 834.585 1180.05 832.909 1179.91 831H1184.28C1184.39 832.318 1184.84 833.409 1185.61 834.273C1186.39 835.125 1187.38 835.761 1188.57 836.182C1189.78 836.591 1191.07 836.795 1192.46 836.795C1194.07 836.795 1195.52 836.534 1196.81 836.011C1198.09 835.477 1199.11 834.739 1199.86 833.795C1200.61 832.841 1200.98 831.727 1200.98 830.455C1200.98 829.295 1200.66 828.352 1200.01 827.625C1199.36 826.898 1198.51 826.307 1197.45 825.852C1196.4 825.398 1195.26 825 1194.03 824.659L1189.73 823.432C1187.01 822.648 1184.85 821.528 1183.26 820.074C1181.66 818.619 1180.87 816.716 1180.87 814.364C1180.87 812.409 1181.4 810.705 1182.45 809.25C1183.52 807.784 1184.95 806.648 1186.75 805.841C1188.56 805.023 1190.57 804.614 1192.8 804.614C1195.05 804.614 1197.05 805.017 1198.8 805.824C1200.55 806.619 1201.94 807.71 1202.96 809.097C1203.99 810.483 1204.54 812.057 1204.6 813.818H1200.51ZM1219.18 840.614C1217.52 840.614 1216.02 840.301 1214.67 839.676C1213.31 839.04 1212.24 838.125 1211.44 836.932C1210.65 835.727 1210.25 834.273 1210.25 832.568C1210.25 831.068 1210.55 829.852 1211.14 828.92C1211.73 827.977 1212.52 827.239 1213.51 826.705C1214.5 826.17 1215.59 825.773 1216.78 825.511C1217.98 825.239 1219.19 825.023 1220.41 824.864C1222 824.659 1223.29 824.506 1224.28 824.403C1225.28 824.29 1226.01 824.102 1226.46 823.841C1226.93 823.58 1227.16 823.125 1227.16 822.477V822.341C1227.16 820.659 1226.7 819.352 1225.78 818.42C1224.87 817.489 1223.49 817.023 1221.64 817.023C1219.72 817.023 1218.21 817.443 1217.12 818.284C1216.03 819.125 1215.26 820.023 1214.82 820.977L1211 819.614C1211.68 818.023 1212.59 816.784 1213.73 815.898C1214.88 815 1216.13 814.375 1217.48 814.023C1218.84 813.659 1220.18 813.477 1221.5 813.477C1222.34 813.477 1223.31 813.58 1224.4 813.784C1225.5 813.977 1226.56 814.381 1227.59 814.994C1228.62 815.608 1229.48 816.534 1230.16 817.773C1230.84 819.011 1231.18 820.67 1231.18 822.75V840H1227.16V836.455H1226.96C1226.68 837.023 1226.23 837.631 1225.59 838.278C1224.96 838.926 1224.11 839.477 1223.05 839.932C1222 840.386 1220.71 840.614 1219.18 840.614ZM1219.8 837C1221.39 837 1222.73 836.688 1223.82 836.062C1224.92 835.438 1225.75 834.631 1226.31 833.642C1226.88 832.653 1227.16 831.614 1227.16 830.523V826.841C1226.99 827.045 1226.62 827.233 1226.04 827.403C1225.47 827.562 1224.81 827.705 1224.06 827.83C1223.32 827.943 1222.6 828.045 1221.89 828.136C1221.2 828.216 1220.64 828.284 1220.21 828.341C1219.16 828.477 1218.18 828.699 1217.27 829.006C1216.38 829.301 1215.65 829.75 1215.09 830.352C1214.55 830.943 1214.27 831.75 1214.27 832.773C1214.27 834.17 1214.79 835.227 1215.83 835.943C1216.87 836.648 1218.19 837 1219.8 837ZM1257.07 819.682L1253.46 820.705C1253.23 820.102 1252.89 819.517 1252.45 818.949C1252.02 818.369 1251.43 817.892 1250.68 817.517C1249.93 817.142 1248.97 816.955 1247.8 816.955C1246.2 816.955 1244.86 817.324 1243.79 818.062C1242.74 818.79 1242.21 819.716 1242.21 820.841C1242.21 821.841 1242.57 822.631 1243.3 823.21C1244.03 823.79 1245.16 824.273 1246.71 824.659L1250.59 825.614C1252.93 826.182 1254.68 827.051 1255.83 828.222C1256.97 829.381 1257.55 830.875 1257.55 832.705C1257.55 834.205 1257.12 835.545 1256.25 836.727C1255.4 837.909 1254.21 838.841 1252.67 839.523C1251.14 840.205 1249.36 840.545 1247.32 840.545C1244.65 840.545 1242.44 839.966 1240.69 838.807C1238.94 837.648 1237.83 835.955 1237.37 833.727L1241.18 832.773C1241.55 834.182 1242.24 835.239 1243.25 835.943C1244.27 836.648 1245.61 837 1247.25 837C1249.13 837 1250.62 836.602 1251.72 835.807C1252.83 835 1253.39 834.034 1253.39 832.909C1253.39 832 1253.07 831.239 1252.43 830.625C1251.8 830 1250.82 829.534 1249.5 829.227L1245.14 828.205C1242.74 827.636 1240.98 826.756 1239.86 825.562C1238.74 824.358 1238.18 822.852 1238.18 821.045C1238.18 819.568 1238.6 818.261 1239.43 817.125C1240.27 815.989 1241.41 815.097 1242.86 814.449C1244.31 813.801 1245.96 813.477 1247.8 813.477C1250.39 813.477 1252.42 814.045 1253.9 815.182C1255.39 816.318 1256.45 817.818 1257.07 819.682ZM1267.63 824.25V840H1263.6V805.091H1267.63V817.909H1267.97C1268.58 816.557 1269.5 815.483 1270.73 814.688C1271.97 813.881 1273.62 813.477 1275.67 813.477C1277.46 813.477 1279.02 813.835 1280.36 814.551C1281.7 815.256 1282.74 816.341 1283.48 817.807C1284.23 819.261 1284.6 821.114 1284.6 823.364V840H1280.58V823.636C1280.58 821.557 1280.04 819.949 1278.96 818.812C1277.89 817.665 1276.41 817.091 1274.51 817.091C1273.19 817.091 1272.01 817.369 1270.97 817.926C1269.93 818.483 1269.12 819.295 1268.51 820.364C1267.92 821.432 1267.63 822.727 1267.63 824.25ZM1299.67 840.614C1298.01 840.614 1296.5 840.301 1295.15 839.676C1293.8 839.04 1292.72 838.125 1291.93 836.932C1291.13 835.727 1290.74 834.273 1290.74 832.568C1290.74 831.068 1291.03 829.852 1291.62 828.92C1292.21 827.977 1293 827.239 1293.99 826.705C1294.98 826.17 1296.07 825.773 1297.26 825.511C1298.47 825.239 1299.68 825.023 1300.89 824.864C1302.49 824.659 1303.78 824.506 1304.76 824.403C1305.76 824.29 1306.49 824.102 1306.95 823.841C1307.41 823.58 1307.64 823.125 1307.64 822.477V822.341C1307.64 820.659 1307.18 819.352 1306.26 818.42C1305.36 817.489 1303.97 817.023 1302.12 817.023C1300.2 817.023 1298.7 817.443 1297.61 818.284C1296.51 819.125 1295.75 820.023 1295.3 820.977L1291.49 819.614C1292.17 818.023 1293.08 816.784 1294.21 815.898C1295.36 815 1296.61 814.375 1297.96 814.023C1299.33 813.659 1300.67 813.477 1301.99 813.477C1302.83 813.477 1303.79 813.58 1304.88 813.784C1305.99 813.977 1307.05 814.381 1308.07 814.994C1309.11 815.608 1309.96 816.534 1310.64 817.773C1311.33 819.011 1311.67 820.67 1311.67 822.75V840H1307.64V836.455H1307.44C1307.17 837.023 1306.71 837.631 1306.08 838.278C1305.44 838.926 1304.59 839.477 1303.54 839.932C1302.48 840.386 1301.19 840.614 1299.67 840.614ZM1300.28 837C1301.87 837 1303.21 836.688 1304.3 836.062C1305.41 835.438 1306.24 834.631 1306.79 833.642C1307.36 832.653 1307.64 831.614 1307.64 830.523V826.841C1307.47 827.045 1307.1 827.233 1306.52 827.403C1305.95 827.562 1305.29 827.705 1304.54 827.83C1303.8 827.943 1303.08 828.045 1302.38 828.136C1301.68 828.216 1301.12 828.284 1300.69 828.341C1299.64 828.477 1298.67 828.699 1297.76 829.006C1296.86 829.301 1296.13 829.75 1295.58 830.352C1295.03 830.943 1294.76 831.75 1294.76 832.773C1294.76 834.17 1295.28 835.227 1296.31 835.943C1297.36 836.648 1298.68 837 1300.28 837Z" fill="url(#paint2_linear_301_9)"/>
<defs>
<linearGradient id="paint0_linear_301_9" x1="879.5" y1="692" x2="1160.5" y2="1124" gradientUnits="userSpaceOnUse">
<stop stop-color="#1C1C1C"/>
<stop offset="1"/>
</linearGradient>
<linearGradient id="paint1_linear_301_9" x1="766.777" y1="432.808" x2="1477.28" y2="715.515" gradientUnits="userSpaceOnUse">
<stop stop-color="#5E17EB"/>
<stop offset="1" stop-color="#BF028A"/>
</linearGradient>
<linearGradient id="paint2_linear_301_9" x1="1161" y1="794" x2="1161" y2="852" gradientUnits="userSpaceOnUse">
<stop stop-color="#6017E9"/>
<stop offset="1" stop-color="#C0038B"/>
</linearGradient>
</defs>
</svg>
