<svg width="1143" height="394" viewBox="0 0 1143 394" fill="none" xmlns="http://www.w3.org/2000/svg">
<path fill-rule="evenodd" clip-rule="evenodd" d="M875.638 382.497C905.106 389.66 935.653 393.241 967.278 393.241C1006.45 393.241 1038.97 387.511 1064.84 376.05C1090.71 364.231 1110.12 348.831 1123.05 329.85C1136.35 310.51 1143 289.38 1143 266.459C1143 246.761 1139.23 230.286 1131.68 217.035C1124.13 203.784 1114.08 193.039 1101.49 184.802C1089.28 176.564 1075.8 169.939 1061.07 164.925C1046.33 159.911 1031.42 155.971 1016.33 153.106C1001.6 150.241 987.938 147.555 975.358 145.048C963.142 142.541 953.262 139.496 945.711 135.915C938.167 131.976 934.395 126.783 934.395 120.336C934.395 116.039 935.831 112.099 938.71 108.517C941.939 104.936 947.154 102.071 954.341 99.9221C961.527 97.7729 971.229 96.6986 983.444 96.6986C999.975 96.6986 1016.87 99.0264 1034.11 103.682C1051.72 108.339 1069.87 115.322 1088.56 124.634L1126.83 32.7701C1107.07 21.6676 1084.79 13.4304 1059.99 8.05821C1035.19 2.68607 1010.04 0 984.523 0C945.711 0 913.193 5.73029 886.961 17.1909C861.086 28.6514 841.498 44.0516 828.204 63.3913C815.266 82.3729 808.801 103.504 808.801 126.783C808.801 146.839 812.573 163.671 820.117 177.281C827.668 190.532 837.548 201.276 849.763 209.514C862.344 217.751 876.002 224.376 890.733 229.391C905.828 234.405 920.737 238.524 935.474 241.746C950.205 244.611 963.685 247.477 975.901 250.342C988.481 252.849 998.539 256.072 1006.08 260.012C1013.63 263.951 1017.41 269.324 1017.41 276.129C1017.41 280.426 1015.79 284.186 1012.56 287.41C1009.32 290.275 1004.11 292.603 996.925 294.394C990.095 295.826 980.573 296.543 968.357 296.543C947.511 296.543 925.951 293.499 903.67 287.41C881.746 280.964 861.808 272.547 843.834 262.161L802.872 354.561C821.917 366.022 846.17 375.334 875.638 382.497ZM110.502 384.646V106.906H0V8.59546H348.214V106.906H237.713V384.646H110.502ZM381.255 384.646V8.59546H567.222C609.266 8.59546 646.279 16.2955 678.262 31.6957C710.245 46.7377 735.22 68.2263 753.187 96.1615C771.154 124.096 780.14 157.404 780.14 196.084C780.14 235.121 771.154 268.786 753.187 297.08C735.22 325.015 710.245 346.683 678.262 362.083C646.279 377.125 609.266 384.646 567.222 384.646H381.255ZM508.467 285.798H561.831C579.799 285.798 595.431 282.396 608.727 275.591C622.382 268.786 632.983 258.759 640.53 245.507C648.076 231.898 651.849 215.423 651.849 196.084C651.849 177.101 648.076 160.985 640.53 147.734C632.983 134.483 622.382 124.455 608.727 117.65C595.431 110.845 579.799 107.443 561.831 107.443H508.467V285.798Z" fill="url(#paint0_linear_141_40)"/>
<defs>
<linearGradient id="paint0_linear_141_40" x1="-91.9951" y1="-40.6495" x2="1209.46" y2="477.193" gradientUnits="userSpaceOnUse">
<stop stop-color="#5E17EB"/>
<stop offset="1" stop-color="#BF028A"/>
</linearGradient>
</defs>
</svg>
